<?xml version="1.0" encoding="UTF-8"?>
<svg xmlns="http://www.w3.org/2000/svg" version="1.1" viewBox="0 0 64 64">
  <defs>
    <style>
      .st0 {
        fill-rule: evenodd;
      }

      .st0, .st1 {
        fill: #fff;
      }

      .st2 {
        fill: url(#linear-gradient);
      }

      .st3 {
        fill: #b9b9b9;
      }
    </style>
    <linearGradient id="linear-gradient" x1="12.6" y1="595.6" x2="62.8" y2="555.7" gradientTransform="translate(0 618) scale(1 -1)" gradientUnits="userSpaceOnUse">
      <stop offset="0" stop-color="#9013fe"/>
      <stop offset="1" stop-color="#6610f2"/>
    </linearGradient>
  </defs>
  <g id="Layer_1" image-rendering="optimizeQuality" shape-rendering="geometricPrecision" text-rendering="geometricPrecision">
    <rect class="st1" width="52" height="52"/>
    <rect class="st3" width="4" height="52"/>
    <rect class="st3" x="12" width="4" height="52"/>
    <rect class="st3" x="24" width="4" height="52"/>
    <rect class="st3" x="36" width="4" height="52"/>
    <rect class="st3" x="48" width="4" height="52"/>
    <rect class="st3" x="24" y="-24" width="4" height="52" transform="translate(28 -24) rotate(90)"/>
    <rect class="st3" x="24" y="-12" width="4" height="52" transform="translate(40 -12) rotate(90)"/>
    <rect class="st3" x="24" width="4" height="52" transform="translate(52) rotate(90)"/>
    <rect class="st3" x="24" y="12" width="4" height="52" transform="translate(64 12) rotate(90)"/>
    <rect class="st3" x="24" y="24" width="4" height="52" transform="translate(76 24) rotate(90)"/>
    <path class="st2" d="M13.5,23.5c-.1-3.2,2.3-6.1,5.5-6.1h33.2c3.2,0,5.6,2.9,5.5,6.1-.1,3,0,7,1,10.2,1,3.2,2.6,5.3,5.3,5.5v3c-2.7.3-4.3,2.3-5.3,5.5-1,3.2-1.1,7.2-1,10.2.1,3.2-2.3,6.1-5.5,6.1H19.1c-3.2,0-5.6-2.9-5.5-6.1.1-3,0-7-1-10.2-1-3.2-2.6-5.3-5.3-5.5v-3c2.7-.3,4.3-2.3,5.3-5.5,1-3.2,1.1-7.2,1-10.2Z"/>
    <path class="st0" d="M45.3,46.1c0,4.4-3.2,7-8.4,7h-9.9v-24.8h9.8c4.4,0,7.2,2.4,7.2,6.2s-1.9,5-4.4,5.4h0c3.3.5,5.6,2.9,5.6,6.2h0ZM30.8,49.9v-8.2h5.1c3.6,0,5.5,1.4,5.5,4.1s-1.8,4.1-5.3,4.1h-5.3ZM30.8,31.4h5.1c2.8,0,4.3,1.3,4.3,3.6s-1.8,3.8-5.1,3.8h-4.3v-7.4Z"/>
  </g>
</svg>