<?xml version="1.0" encoding="UTF-8"?>
<svg id="Layer_1" xmlns="http://www.w3.org/2000/svg" xmlns:xlink="http://www.w3.org/1999/xlink" version="1.1" viewBox="0 0 64 64">
  <defs>
    <style>
      .st0 {
        fill-rule: evenodd;
      }

      .st0, .st1 {
        fill: #fff;
      }

      .st2 {
        fill: url(#linear-gradient1);
      }

      .st3 {
        fill: url(#linear-gradient);
      }
    </style>
    <linearGradient id="linear-gradient" x1="26" y1="14" x2="26" y2="66" gradientTransform="translate(0 66) scale(1 -1)" gradientUnits="userSpaceOnUse">
      <stop offset="0" stop-color="#999"/>
      <stop offset="1" stop-color="#b9b9b9"/>
    </linearGradient>
    <linearGradient id="linear-gradient1" x1="12.5" y1="85.7" x2="62.7" y2="45.8" gradientTransform="translate(0 108) scale(1 -1)" gradientUnits="userSpaceOnUse">
      <stop offset="0" stop-color="#9013fe"/>
      <stop offset="1" stop-color="#6610f2"/>
    </linearGradient>
  </defs>
  <g id="Layer_11" image-rendering="optimizeQuality" shape-rendering="geometricPrecision" text-rendering="geometricPrecision">
    <rect class="st1" x="0" y="0" width="52" height="52"/>
    <path class="st3" d="M0,0h4v52H0V0ZM12,0h4v52h-4S12,0,12,0ZM24,0h4v52h-4V0ZM36,0h4v52h-4S36,0,36,0ZM48,0h4v52h-4V0ZM52,0V4H0V0h52ZM52,12v4H0v-4h52ZM52,24v4H0v-4s52,0,52,0ZM52,36v4H0v-4h52ZM52,48v4H0v-4h52Z"/>
    <path class="st2" d="M13.5,23.5c-.1-3.2,2.3-6.1,5.5-6.1h33.2c3.2,0,5.6,2.9,5.5,6.1,0,3,0,7,1,10.2s2.6,5.3,5.3,5.5v3c-2.7.3-4.3,2.3-5.3,5.5s-1.1,7.2-1,10.2c0,3.2-2.3,6.1-5.5,6.1H19.1c-3.2,0-5.6-2.9-5.5-6.1.1-3,0-7-1-10.2s-2.6-5.3-5.3-5.5v-3c2.7-.3,4.3-2.3,5.3-5.5s1-7.2.9-10.2h0Z"/>
    <path class="st0" d="M45.3,46.1c0,4.4-3.2,7-8.4,7h-9.9v-24.8h9.8c4.4,0,7.2,2.4,7.2,6.2s-1.9,5-4.4,5.4h0c3.3.5,5.6,2.9,5.6,6.2h0ZM30.8,49.9v-8.2h5.1c3.6,0,5.5,1.4,5.5,4.1s-1.8,4.1-5.3,4.1c0,0-5.3,0-5.3,0ZM30.8,31.4h5.1c2.8,0,4.3,1.3,4.3,3.6s-1.8,3.8-5.1,3.8h-4.3v-7.4Z"/>
  </g>
</svg>