<?xml version="1.0" encoding="UTF-8"?>
<svg id="Layer_1" xmlns="http://www.w3.org/2000/svg" version="1.1" viewBox="0 0 16 16">
  <defs>
    <style>
      .st0 {
        fill: #fff;
      }

      .st1 {
        fill: #b9b9b9;
      }

      .st2 {
        fill: #999;
      }
    </style>
  </defs>
  <path class="st0" d="M1,1h14v14H1V1Z"/>
  <path class="st2" d="M1,1v14h14V1H1ZM2,2h12v12H2V2Z"/>
  <path class="st1" d="M2.6,3h1v1h-1v-1ZM2.6,5h1v3h-1v-3ZM2.6,9h1v1h-1v-1ZM2.6,11h1v2h-1v-2ZM5.9,3h1v1h-1v-1ZM5.9,10h1v3h-1v-3ZM5.9,5h1v1h-1v-1ZM5.9,7h1v2h-1v-2ZM9.1,3h1v1h-1v-1ZM9.1,8h1v3h-1v-3ZM9.1,12h1v1h-1v-1ZM9.1,5h1v2h-1v-2ZM12.4,7h1v1h-1v-1ZM12.4,3h1v3h-1v-3ZM12.4,12h1v1h-1v-1ZM12.4,9h1v2h-1v-2ZM4.2,2h1v12h-1V2ZM7.5,2h1v12h-1V2ZM10.8,2h1v12h-1V2Z"/>
</svg>