<?xml version="1.0" encoding="UTF-8"?>
<svg id="Layer_1" xmlns="http://www.w3.org/2000/svg" version="1.1" viewBox="0 0 16 16">
  <defs>
    <style>
      .st0 {
        fill: #fff;
      }

      .st1 {
        fill: #5498ff;
      }

      .st2 {
        fill: #4072bf;
      }

      .st3 {
        fill: #b9b9b9;
      }

      .st4 {
        fill: #fe8700;
      }

      .st5 {
        fill: #999;
      }
    </style>
  </defs>
  <path class="st0" d="M1,1h14v14H1V1Z"/>
  <path class="st5" d="M1,1v14h14V1H1ZM2,2h12v12H2V2Z"/>
  <rect class="st3" x="2.6" y="3" width="1" height="1"/>
  <rect class="st3" x="2.6" y="5" width="1" height="3"/>
  <rect class="st4" x="2.6" y="9" width="1" height="1"/>
  <rect class="st3" x="2.6" y="11" width="1" height="2"/>
  <rect class="st2" x="5.9" y="3" width="1" height="1"/>
  <rect class="st3" x="5.9" y="10" width="1" height="3"/>
  <rect class="st3" x="5.9" y="5" width="1" height="1"/>
  <rect class="st3" x="5.9" y="7" width="1" height="2"/>
  <rect class="st3" x="9.1" y="3" width="1" height="1"/>
  <rect class="st3" x="9.1" y="8" width="1" height="3"/>
  <rect class="st3" x="9.1" y="12" width="1" height="1"/>
  <rect class="st4" x="9.1" y="5" width="1" height="2"/>
  <rect class="st3" x="12.4" y="7" width="1" height="1"/>
  <rect class="st3" x="12.4" y="3" width="1" height="3"/>
  <rect class="st3" x="12.4" y="12" width="1" height="1"/>
  <rect class="st1" x="12.4" y="9" width="1" height="2"/>
  <rect class="st3" x="4.2" y="2" width="1" height="12"/>
  <rect class="st3" x="7.5" y="2" width="1" height="12"/>
  <rect class="st3" x="10.8" y="2" width="1" height="12"/>
</svg>