<?xml version="1.0" encoding="UTF-8"?>
<svg id="Layer_1" xmlns="http://www.w3.org/2000/svg" version="1.1" viewBox="0 0 16 16">
  <defs>
    <style>
      .st0 {
        fill: #fff;
      }

      .st1 {
        fill: #4072bf;
      }

      .st2 {
        fill: #b9b9b9;
      }

      .st3 {
        fill: #fe8700;
      }

      .st4 {
        fill: #999;
      }
    </style>
  </defs>
  <path class="st0" d="M1,1h14v14H1V1Z"/>
  <path class="st4" d="M1,1v14h14V1H1ZM2,2h12v12H2V2Z"/>
  <rect class="st2" x="2.7" y="3" width="1.9" height="1"/>
  <rect class="st2" x="2.7" y="5" width="1.9" height="3"/>
  <rect class="st3" x="2.7" y="9" width="1.9" height="1"/>
  <rect class="st2" x="2.7" y="11" width="1.9" height="2"/>
  <rect class="st1" x="7.1" y="3" width="1.9" height="1"/>
  <rect class="st2" x="7.1" y="10" width="1.9" height="3"/>
  <rect class="st2" x="7.1" y="5" width="1.9" height="1"/>
  <rect class="st2" x="7.1" y="7" width="1.9" height="2"/>
  <rect class="st2" x="11.4" y="3" width="1.9" height="1"/>
  <rect class="st2" x="11.4" y="8" width="1.9" height="3"/>
  <rect class="st2" x="11.4" y="12" width="1.9" height="1"/>
  <rect class="st3" x="11.4" y="5" width="1.9" height="2"/>
  <rect class="st2" x="5.3" y="2" width="1" height="12"/>
  <rect class="st2" x="9.7" y="2" width="1" height="12"/>
</svg>